<?xml version="1.0" encoding="UTF-8" standalone="no"?>
<!DOCTYPE svg PUBLIC "-//W3C//DTD SVG 1.1//EN" "http://www.w3.org/Graphics/SVG/1.1/DTD/svg11.dtd">
<svg width="100%" height="100%" viewBox="0 0 1333 879" version="1.1" xmlns="http://www.w3.org/2000/svg" xmlns:xlink="http://www.w3.org/1999/xlink" xml:space="preserve" xmlns:serif="http://www.serif.com/" style="fill-rule:evenodd;clip-rule:evenodd;">
    <g transform="matrix(1,0,0,1,-270.244,-2312.6)">
        <g transform="matrix(1,0,0,1,55.5496,635.067)">
            <path d="M709.891,2410.91L918.682,2531.46" style="fill:none;stroke:rgb(179,179,179);stroke-width:4.17px;"/>
            <path d="M1106.59,2422.97L918.682,2531.46" style="fill:none;stroke:rgb(179,179,179);stroke-width:4.17px;"/>
            <path d="M897.803,2254.21L1148.35,2398.86L1106.59,2422.97" style="fill:none;stroke:rgb(179,179,179);stroke-width:4.17px;"/>
            <path d="M1002.2,2362.7L1106.59,2422.97" style="fill:none;stroke:rgb(179,179,179);stroke-width:4.17px;"/>
            <path d="M835.165,2338.59L709.891,2410.91" style="fill:none;stroke:rgb(179,179,179);stroke-width:4.17px;"/>
            <path d="M960.44,2218.04L897.803,2254.21" style="fill:none;stroke:rgb(179,179,179);stroke-width:4.17px;"/>
            <path d="M793.407,2193.93L897.803,2254.21" style="fill:none;stroke:rgb(179,179,179);stroke-width:4.17px;"/>
            <path d="M1002.2,2362.7L960.44,2338.59L1064.84,2278.32L960.44,2218.04" style="fill:none;stroke:black;stroke-width:4.17px;"/>
            <path d="M835.165,2338.59L939.561,2398.86L1002.2,2362.7" style="fill:none;stroke:black;stroke-width:4.17px;"/>
            <path d="M793.407,2193.93L730.77,2230.1L876.924,2314.48L835.165,2338.59" style="fill:none;stroke:black;stroke-width:4.17px;"/>
            <path d="M793.407,2193.93L856.045,2157.77L960.44,2218.04" style="fill:none;stroke:black;stroke-width:4.17px;"/>
            <g transform="matrix(-1,0,0,1,1594.83,824.07)">
                <path d="M481.144,1048.21L480.22,1145.18L730.77,1289.84L1064.84,1096.97L1065.53,999.863L731.925,1193L481.144,1048.21Z" style="fill:rgb(236,236,236);"/>
            </g>
            <g transform="matrix(1,0,0,1,361.802,1052.71)">
                <g transform="matrix(1,0,0,1,-166.802,385.613)">
                    <path d="M334.066,385.746L584.616,241.092L918.682,433.965L668.132,578.62L334.066,385.746Z" style="fill:white;stroke:black;stroke-width:2.08px;stroke-miterlimit:1.5;"/>
                </g>
                <g transform="matrix(1,0,0,1,-166.802,385.613)">
                    <path d="M584.616,289.31L417.583,385.746" style="fill:none;stroke:black;stroke-width:4.17px;stroke-miterlimit:1.5;"/>
                </g>
                <g transform="matrix(1,0,0,1,-146.385,397.401)">
                    <path d="M584.616,289.31L417.583,385.746" style="fill:none;stroke:black;stroke-width:4.17px;stroke-miterlimit:1.5;"/>
                </g>
                <g transform="matrix(0.625,0.216506,0.216506,0.875,-10.2086,343.422)">
                    <path d="M584.616,289.31L417.583,385.746" style="fill:none;stroke:black;stroke-width:4.28px;stroke-miterlimit:1.5;"/>
                </g>
                <g transform="matrix(1,0,0,1,-161.418,378.238)">
                    <path d="M584.616,385.746L668.132,337.528L751.649,385.746L668.132,433.965L584.616,385.746Z" style="fill:none;stroke:black;stroke-width:4.17px;stroke-miterlimit:1.5;"/>
                </g>
                <g transform="matrix(1,0,0,1,-159.109,379.571)">
                    <path d="M772.066,397.534L689.473,446.286" style="fill:none;stroke:black;stroke-width:4.17px;stroke-miterlimit:1.5;"/>
                </g>
                <g transform="matrix(1,0,0,1,-160.494,378.771)">
                    <path d="M793.407,409.856L710.814,458.607" style="fill:none;stroke:black;stroke-width:4.17px;stroke-miterlimit:1.5;"/>
                </g>
                <g transform="matrix(1,0,0,1,-116.888,403.947)">
                    <path d="M772.066,397.534L689.473,446.286" style="fill:none;stroke:black;stroke-width:4.17px;stroke-miterlimit:1.5;"/>
                </g>
                <g transform="matrix(1,0,0,1,-116.888,403.947)">
                    <path d="M793.407,409.856L710.814,458.607" style="fill:none;stroke:black;stroke-width:4.17px;stroke-miterlimit:1.5;"/>
                </g>
                <g transform="matrix(1,0,0,1,-368.352,378.765)">
                    <path d="M772.066,397.534L689.473,446.286" style="fill:none;stroke:black;stroke-width:4.17px;stroke-miterlimit:1.5;"/>
                </g>
                <g transform="matrix(1,0,0,1,-368.352,378.765)">
                    <path d="M793.407,409.856L710.814,458.607" style="fill:none;stroke:black;stroke-width:4.17px;stroke-miterlimit:1.5;"/>
                </g>
                <g transform="matrix(1,0,0,1,-325.67,403.408)">
                    <path d="M772.066,397.534L689.473,446.286" style="fill:none;stroke:black;stroke-width:4.17px;stroke-miterlimit:1.5;"/>
                </g>
                <g transform="matrix(1,0,0,1,-326.132,403.141)">
                    <path d="M793.407,409.856L710.814,458.607" style="fill:none;stroke:black;stroke-width:4.17px;stroke-miterlimit:1.5;"/>
                </g>
                <g transform="matrix(1,0,0,1,-282.988,428.05)">
                    <path d="M772.066,397.534L689.473,446.286" style="fill:none;stroke:black;stroke-width:4.17px;stroke-miterlimit:1.5;"/>
                </g>
                <g transform="matrix(1,0,0,1,-283.45,427.784)">
                    <path d="M793.407,409.856L710.814,458.607" style="fill:none;stroke:black;stroke-width:4.17px;stroke-miterlimit:1.5;"/>
                </g>
                <g transform="matrix(1,0,0,1,-240.768,452.426)">
                    <path d="M772.066,397.534L689.473,446.286" style="fill:none;stroke:black;stroke-width:4.17px;stroke-miterlimit:1.5;"/>
                </g>
                <g transform="matrix(1,0,0,1,-240.768,452.426)">
                    <path d="M793.407,409.856L710.814,458.607" style="fill:none;stroke:black;stroke-width:4.17px;stroke-miterlimit:1.5;"/>
                </g>
                <g transform="matrix(1,0,0,1,-219.888,464.481)">
                    <path d="M793.407,409.856L710.814,458.607" style="fill:none;stroke:black;stroke-width:4.17px;stroke-miterlimit:1.5;"/>
                </g>
                <g transform="matrix(1,0,0,1,-82.5928,338.061)">
                    <path d="M249.857,433.298L250.781,530.268" style="fill:none;stroke:black;stroke-width:2.08px;stroke-miterlimit:1.5;"/>
                </g>
                <g transform="matrix(1,0,0,1,-82.5928,338.061)">
                    <path d="M835.396,482.05L835.396,578.486" style="fill:none;stroke:black;stroke-width:2.08px;stroke-miterlimit:1.5;"/>
                </g>
                <g transform="matrix(1,0,0,1,-166.802,385.613)">
                    <path d="M334.066,385.746L584.616,241.092L918.682,433.965L668.132,578.62L334.066,385.746Z" style="fill:white;stroke:black;stroke-width:2.08px;stroke-miterlimit:1.5;"/>
                </g>
                <g transform="matrix(1,0,0,1,-166.802,385.613)">
                    <path d="M584.616,289.31L417.583,385.746" style="fill:none;stroke:black;stroke-width:4.17px;stroke-miterlimit:1.5;"/>
                </g>
                <g transform="matrix(1,0,0,1,-146.385,397.401)">
                    <path d="M584.616,289.31L417.583,385.746" style="fill:none;stroke:black;stroke-width:4.17px;stroke-miterlimit:1.5;"/>
                </g>
                <g transform="matrix(0.625,0.216506,0.216506,0.875,-10.2086,343.422)">
                    <path d="M584.616,289.31L417.583,385.746" style="fill:none;stroke:black;stroke-width:4.28px;stroke-miterlimit:1.5;"/>
                </g>
                <g transform="matrix(1,0,0,1,-161.418,378.238)">
                    <path d="M584.616,385.746L668.132,337.528L751.649,385.746L668.132,433.965L584.616,385.746Z" style="fill:none;stroke:black;stroke-width:4.17px;stroke-miterlimit:1.5;"/>
                </g>
                <g transform="matrix(1,0,0,1,-159.109,379.571)">
                    <path d="M772.066,397.534L689.473,446.286" style="fill:none;stroke:black;stroke-width:4.17px;stroke-miterlimit:1.5;"/>
                </g>
                <g transform="matrix(1,0,0,1,-160.494,378.771)">
                    <path d="M793.407,409.856L710.814,458.607" style="fill:none;stroke:black;stroke-width:4.17px;stroke-miterlimit:1.5;"/>
                </g>
                <g transform="matrix(1,0,0,1,-116.888,403.947)">
                    <path d="M772.066,397.534L689.473,446.286" style="fill:none;stroke:black;stroke-width:4.17px;stroke-miterlimit:1.5;"/>
                </g>
                <g transform="matrix(1,0,0,1,-116.888,403.947)">
                    <path d="M793.407,409.856L710.814,458.607" style="fill:none;stroke:black;stroke-width:4.17px;stroke-miterlimit:1.5;"/>
                </g>
                <g transform="matrix(1,0,0,1,-368.352,378.765)">
                    <path d="M772.066,397.534L689.473,446.286" style="fill:none;stroke:black;stroke-width:4.17px;stroke-miterlimit:1.5;"/>
                </g>
                <g transform="matrix(1,0,0,1,-368.352,378.765)">
                    <path d="M793.407,409.856L710.814,458.607" style="fill:none;stroke:black;stroke-width:4.17px;stroke-miterlimit:1.5;"/>
                </g>
                <g transform="matrix(1,0,0,1,-325.67,403.408)">
                    <path d="M772.066,397.534L689.473,446.286" style="fill:none;stroke:black;stroke-width:4.17px;stroke-miterlimit:1.5;"/>
                </g>
                <g transform="matrix(1,0,0,1,-326.132,403.141)">
                    <path d="M793.407,409.856L710.814,458.607" style="fill:none;stroke:black;stroke-width:4.17px;stroke-miterlimit:1.5;"/>
                </g>
                <g transform="matrix(1,0,0,1,-282.988,428.05)">
                    <path d="M772.066,397.534L689.473,446.286" style="fill:none;stroke:black;stroke-width:4.17px;stroke-miterlimit:1.5;"/>
                </g>
                <g transform="matrix(1,0,0,1,-283.45,427.784)">
                    <path d="M793.407,409.856L710.814,458.607" style="fill:none;stroke:black;stroke-width:4.17px;stroke-miterlimit:1.5;"/>
                </g>
                <g transform="matrix(1,0,0,1,-240.768,452.426)">
                    <path d="M772.066,397.534L689.473,446.286" style="fill:none;stroke:black;stroke-width:4.17px;stroke-miterlimit:1.5;"/>
                </g>
                <g transform="matrix(1,0,0,1,-240.768,452.426)">
                    <path d="M793.407,409.856L710.814,458.607" style="fill:none;stroke:black;stroke-width:4.17px;stroke-miterlimit:1.5;"/>
                </g>
                <g transform="matrix(1,0,0,1,-219.888,464.481)">
                    <path d="M793.407,409.856L710.814,458.607" style="fill:none;stroke:black;stroke-width:4.17px;stroke-miterlimit:1.5;"/>
                </g>
            </g>
            <g transform="matrix(1,0,0,1,195.924,1438.85)">
                <path d="M334.066,482.183L668.132,675.056L918.682,530.401" style="fill:none;stroke:black;stroke-width:2.08px;stroke-miterlimit:1.5;"/>
            </g>
            <g transform="matrix(1,0,0,1,279.209,1390.77)">
                <path d="M249.857,433.298L250.781,530.268" style="fill:none;stroke:black;stroke-width:2.08px;stroke-miterlimit:1.5;"/>
            </g>
            <g transform="matrix(1,0,0,1,279.209,1390.77)">
                <path d="M835.396,482.05L835.396,578.486" style="fill:none;stroke:black;stroke-width:2.08px;stroke-miterlimit:1.5;"/>
            </g>
            <g transform="matrix(1,0,0,1,279.209,1390.77)">
                <path d="M584.847,626.705L584.616,723.275" style="fill:none;stroke:black;stroke-width:2.08px;stroke-miterlimit:1.5;"/>
            </g>
            <g transform="matrix(1,0,0,1,-117.494,1692.13)">
                <path d="M334.066,385.746L584.616,241.092L918.682,433.965L668.132,578.62L334.066,385.746Z" style="fill:white;stroke:rgb(179,179,179);stroke-width:2.08px;stroke-miterlimit:1.5;"/>
            </g>
            <g>
                <g transform="matrix(1,0,0,1,-117.494,1692.13)">
                    <path d="M584.616,289.31L417.583,385.746" style="fill:none;stroke:rgb(179,179,179);stroke-width:4.17px;stroke-miterlimit:1.5;"/>
                </g>
                <g transform="matrix(1,0,0,1,-97.077,1703.92)">
                    <path d="M584.616,289.31L417.583,385.746" style="fill:none;stroke:rgb(179,179,179);stroke-width:4.17px;stroke-miterlimit:1.5;"/>
                </g>
                <g transform="matrix(1,0,0,1,-214.196,1625.82)">
                    <path d="M772.066,397.534L689.473,446.286" style="fill:none;stroke:rgb(179,179,179);stroke-width:4.17px;stroke-miterlimit:1.5;"/>
                </g>
                <g transform="matrix(1,0,0,1,-215.582,1625.02)">
                    <path d="M793.407,409.856L710.814,458.607" style="fill:none;stroke:rgb(179,179,179);stroke-width:4.17px;stroke-miterlimit:1.5;"/>
                </g>
                <g transform="matrix(1,0,0,1,-171.976,1650.19)">
                    <path d="M772.066,397.534L689.473,446.286" style="fill:none;stroke:rgb(179,179,179);stroke-width:4.17px;stroke-miterlimit:1.5;"/>
                </g>
                <g transform="matrix(1,0,0,1,-171.976,1650.19)">
                    <path d="M793.407,409.856L710.814,458.607" style="fill:none;stroke:rgb(179,179,179);stroke-width:4.17px;stroke-miterlimit:1.5;"/>
                </g>
                <g transform="matrix(1,0,0,1,-319.044,1685.29)">
                    <path d="M772.066,397.534L689.473,446.286" style="fill:none;stroke:rgb(179,179,179);stroke-width:4.17px;stroke-miterlimit:1.5;"/>
                </g>
                <g transform="matrix(1,0,0,1,-319.044,1685.29)">
                    <path d="M793.407,409.856L710.814,458.607" style="fill:none;stroke:rgb(179,179,179);stroke-width:4.17px;stroke-miterlimit:1.5;"/>
                </g>
                <g transform="matrix(1,0,0,1,-276.362,1709.93)">
                    <path d="M772.066,397.534L689.473,446.286" style="fill:none;stroke:rgb(179,179,179);stroke-width:4.17px;stroke-miterlimit:1.5;"/>
                </g>
                <g transform="matrix(1,0,0,1,-276.824,1709.66)">
                    <path d="M793.407,409.856L710.814,458.607" style="fill:none;stroke:rgb(179,179,179);stroke-width:4.17px;stroke-miterlimit:1.5;"/>
                </g>
                <g transform="matrix(1,0,0,1,-233.68,1734.57)">
                    <path d="M772.066,397.534L689.473,446.286" style="fill:none;stroke:rgb(179,179,179);stroke-width:4.17px;stroke-miterlimit:1.5;"/>
                </g>
                <g transform="matrix(1,0,0,1,-234.142,1734.3)">
                    <path d="M793.407,409.856L710.814,458.607" style="fill:none;stroke:rgb(179,179,179);stroke-width:4.17px;stroke-miterlimit:1.5;"/>
                </g>
                <g transform="matrix(1,0,0,1,-191.46,1758.95)">
                    <path d="M772.066,397.534L689.473,446.286" style="fill:none;stroke:rgb(179,179,179);stroke-width:4.17px;stroke-miterlimit:1.5;"/>
                </g>
                <g transform="matrix(1,0,0,1,-191.46,1758.95)">
                    <path d="M793.407,409.856L710.814,458.607" style="fill:none;stroke:rgb(179,179,179);stroke-width:4.17px;stroke-miterlimit:1.5;"/>
                </g>
                <g transform="matrix(1,0,0,1,-170.581,1771)">
                    <path d="M793.407,409.856L710.814,458.607" style="fill:none;stroke:rgb(179,179,179);stroke-width:4.17px;stroke-miterlimit:1.5;"/>
                </g>
                <g transform="matrix(1,0,0,1,-117.494,1692.13)">
                    <path d="M584.616,289.31L417.583,385.746" style="fill:none;stroke:rgb(179,179,179);stroke-width:4.17px;stroke-miterlimit:1.5;"/>
                </g>
                <g transform="matrix(1,0,0,1,-97.077,1703.92)">
                    <path d="M584.616,289.31L417.583,385.746" style="fill:none;stroke:rgb(179,179,179);stroke-width:4.17px;stroke-miterlimit:1.5;"/>
                </g>
                <g transform="matrix(1,0,0,1,-23.9747,1735.64)">
                    <path d="M584.616,385.746L668.132,337.528L751.649,385.746L668.132,433.965L584.616,385.746Z" style="fill:none;stroke:rgb(179,179,179);stroke-width:4.17px;stroke-miterlimit:1.5;"/>
                </g>
                <g transform="matrix(1,0,0,1,-214.196,1625.82)">
                    <path d="M772.066,397.534L689.473,446.286" style="fill:none;stroke:rgb(179,179,179);stroke-width:4.17px;stroke-miterlimit:1.5;"/>
                </g>
                <g transform="matrix(1,0,0,1,-215.582,1625.02)">
                    <path d="M793.407,409.856L710.814,458.607" style="fill:none;stroke:rgb(179,179,179);stroke-width:4.17px;stroke-miterlimit:1.5;"/>
                </g>
                <g transform="matrix(1,0,0,1,-171.976,1650.19)">
                    <path d="M772.066,397.534L689.473,446.286" style="fill:none;stroke:rgb(179,179,179);stroke-width:4.17px;stroke-miterlimit:1.5;"/>
                </g>
                <g transform="matrix(1,0,0,1,-171.976,1650.19)">
                    <path d="M793.407,409.856L710.814,458.607" style="fill:none;stroke:rgb(179,179,179);stroke-width:4.17px;stroke-miterlimit:1.5;"/>
                </g>
                <g transform="matrix(1,0,0,1,-319.044,1685.29)">
                    <path d="M772.066,397.534L689.473,446.286" style="fill:none;stroke:rgb(179,179,179);stroke-width:4.17px;stroke-miterlimit:1.5;"/>
                </g>
                <g transform="matrix(1,0,0,1,-319.044,1685.29)">
                    <path d="M793.407,409.856L710.814,458.607" style="fill:none;stroke:rgb(179,179,179);stroke-width:4.17px;stroke-miterlimit:1.5;"/>
                </g>
                <g transform="matrix(1,0,0,1,-276.362,1709.93)">
                    <path d="M772.066,397.534L689.473,446.286" style="fill:none;stroke:rgb(179,179,179);stroke-width:4.17px;stroke-miterlimit:1.5;"/>
                </g>
                <g transform="matrix(1,0,0,1,-276.824,1709.66)">
                    <path d="M793.407,409.856L710.814,458.607" style="fill:none;stroke:rgb(179,179,179);stroke-width:4.17px;stroke-miterlimit:1.5;"/>
                </g>
                <g transform="matrix(1,0,0,1,-233.68,1734.57)">
                    <path d="M772.066,397.534L689.473,446.286" style="fill:none;stroke:rgb(179,179,179);stroke-width:4.17px;stroke-miterlimit:1.5;"/>
                </g>
                <g transform="matrix(1,0,0,1,-234.142,1734.3)">
                    <path d="M793.407,409.856L710.814,458.607" style="fill:none;stroke:rgb(179,179,179);stroke-width:4.17px;stroke-miterlimit:1.5;"/>
                </g>
                <g transform="matrix(1,0,0,1,-191.46,1758.95)">
                    <path d="M772.066,397.534L689.473,446.286" style="fill:none;stroke:rgb(179,179,179);stroke-width:4.17px;stroke-miterlimit:1.5;"/>
                </g>
                <g transform="matrix(1,0,0,1,-191.46,1758.95)">
                    <path d="M793.407,409.856L710.814,458.607" style="fill:none;stroke:rgb(179,179,179);stroke-width:4.17px;stroke-miterlimit:1.5;"/>
                </g>
                <g transform="matrix(1,0,0,1,-170.581,1771)">
                    <path d="M793.407,409.856L710.814,458.607" style="fill:none;stroke:rgb(179,179,179);stroke-width:4.17px;stroke-miterlimit:1.5;"/>
                </g>
            </g>
            <g>
                <g transform="matrix(1,0,0,1,112.176,1197.9)">
                    <path d="M417.583,699.165L751.649,892.039" style="fill:none;stroke:black;stroke-width:4.17px;stroke-miterlimit:1.5;stroke-dasharray:4.17,4.17;"/>
                </g>
                <g transform="matrix(1,0,0,1,112.176,1197.9)">
                    <path d="M751.649,892.039L1002.2,747.384" style="fill:none;stroke:black;stroke-width:4.17px;stroke-miterlimit:1.5;stroke-dasharray:4.17,4.17;"/>
                </g>
            </g>
            <g transform="matrix(1,0,0,1,1.73205,-47.2183)">
                <g transform="matrix(1,0,0,1,112.176,1197.9)">
                    <path d="M417.583,699.165L751.649,892.039" style="fill:none;stroke:black;stroke-width:4.17px;stroke-miterlimit:1.5;stroke-dasharray:4.17,4.17;"/>
                </g>
                <g transform="matrix(1,0,0,1,112.176,1197.9)">
                    <path d="M751.649,892.039L1002.2,747.384" style="fill:none;stroke:black;stroke-width:4.17px;stroke-miterlimit:1.5;stroke-dasharray:4.17,4.17;"/>
                </g>
            </g>
            <g transform="matrix(1,0,0,1,626.374,1711.75)">
                <path d="M334.066,385.746L584.616,241.092L918.682,433.965L668.132,578.62L334.066,385.746Z" style="fill:white;stroke:rgb(179,179,179);stroke-width:2.08px;stroke-miterlimit:1.5;"/>
            </g>
            <g>
                <g transform="matrix(1,0,0,1,529.672,1645.43)">
                    <path d="M772.066,397.534L689.473,446.286" style="fill:none;stroke:rgb(179,179,179);stroke-width:4.17px;stroke-miterlimit:1.5;"/>
                </g>
                <g transform="matrix(1,0,0,1,571.892,1669.81)">
                    <path d="M793.407,409.856L710.814,458.607" style="fill:none;stroke:rgb(179,179,179);stroke-width:4.17px;stroke-miterlimit:1.5;"/>
                </g>
                <g transform="matrix(1,0,0,1,424.824,1704.9)">
                    <path d="M772.066,397.534L689.473,446.286" style="fill:none;stroke:rgb(179,179,179);stroke-width:4.17px;stroke-miterlimit:1.5;"/>
                </g>
                <g transform="matrix(1,0,0,1,424.824,1704.9)">
                    <path d="M793.407,409.856L710.814,458.607" style="fill:none;stroke:rgb(179,179,179);stroke-width:4.17px;stroke-miterlimit:1.5;"/>
                </g>
                <g transform="matrix(1,0,0,1,467.507,1729.54)">
                    <path d="M772.066,397.534L689.473,446.286" style="fill:none;stroke:rgb(179,179,179);stroke-width:4.17px;stroke-miterlimit:1.5;"/>
                </g>
                <g transform="matrix(1,0,0,1,467.045,1729.28)">
                    <path d="M793.407,409.856L710.814,458.607" style="fill:none;stroke:rgb(179,179,179);stroke-width:4.17px;stroke-miterlimit:1.5;"/>
                </g>
                <g transform="matrix(1,0,0,1,615.96,1695.25)">
                    <path d="M772.066,397.534L689.473,446.286" style="fill:none;stroke:rgb(179,179,179);stroke-width:4.17px;stroke-miterlimit:1.5;"/>
                </g>
                <g transform="matrix(1,0,0,1,615.498,1694.99)">
                    <path d="M793.407,409.856L710.814,458.607" style="fill:none;stroke:rgb(179,179,179);stroke-width:4.17px;stroke-miterlimit:1.5;"/>
                </g>
                <g transform="matrix(1,0,0,1,658.18,1719.63)">
                    <path d="M772.066,397.534L689.473,446.286" style="fill:none;stroke:rgb(179,179,179);stroke-width:4.17px;stroke-miterlimit:1.5;"/>
                </g>
                <g transform="matrix(1,0,0,1,658.18,1719.63)">
                    <path d="M793.407,409.856L710.814,458.607" style="fill:none;stroke:rgb(179,179,179);stroke-width:4.17px;stroke-miterlimit:1.5;"/>
                </g>
                <g transform="matrix(1,0,0,1,679.059,1731.68)">
                    <path d="M793.407,409.856L710.814,458.607" style="fill:none;stroke:rgb(179,179,179);stroke-width:4.17px;stroke-miterlimit:1.5;"/>
                </g>
                <g transform="matrix(1,0,0,1,617.817,1816.33)">
                    <path d="M584.616,385.746L668.132,337.528L751.649,385.746L668.132,433.965L584.616,385.746Z" style="fill:none;stroke:rgb(179,179,179);stroke-width:4.17px;stroke-miterlimit:1.5;"/>
                </g>
                <g transform="matrix(0.306278,0,0,0.306278,1074.87,2083.56)">
                    <path d="M584.616,385.746L668.132,337.528L751.649,385.746L668.132,433.965L584.616,385.746Z" style="fill:none;stroke:rgb(83,101,253);stroke-width:27.21px;stroke-miterlimit:1.5;"/>
                </g>
                <g transform="matrix(1,0,0,1,529.672,1645.43)">
                    <path d="M772.066,397.534L689.473,446.286" style="fill:none;stroke:rgb(179,179,179);stroke-width:4.17px;stroke-miterlimit:1.5;"/>
                </g>
                <g transform="matrix(0.629194,0.218874,0.218874,0.870806,712.363,1560.36)">
                    <path d="M793.407,409.856L710.814,458.607" style="fill:none;stroke:rgb(179,179,179);stroke-width:4.27px;stroke-miterlimit:1.5;"/>
                </g>
                <g transform="matrix(1,0,0,1,571.892,1669.81)">
                    <path d="M793.407,409.856L710.814,458.607" style="fill:none;stroke:rgb(179,179,179);stroke-width:4.17px;stroke-miterlimit:1.5;"/>
                </g>
                <g transform="matrix(1,0,0,1,445.232,1596.68)">
                    <path d="M772.066,397.534L689.473,446.286" style="fill:none;stroke:rgb(179,179,179);stroke-width:4.17px;stroke-miterlimit:1.5;"/>
                </g>
                <g transform="matrix(1,0,0,1,443.846,1595.88)">
                    <path d="M793.407,409.856L710.814,458.607" style="fill:none;stroke:rgb(179,179,179);stroke-width:4.17px;stroke-miterlimit:1.5;"/>
                </g>
                <g transform="matrix(1,0,0,1,487.452,1621.06)">
                    <path d="M772.066,397.534L689.473,446.286" style="fill:none;stroke:rgb(179,179,179);stroke-width:4.17px;stroke-miterlimit:1.5;"/>
                </g>
                <g transform="matrix(1,0,0,1,487.452,1621.06)">
                    <path d="M793.407,409.856L710.814,458.607" style="fill:none;stroke:rgb(179,179,179);stroke-width:4.17px;stroke-miterlimit:1.5;"/>
                </g>
                <g transform="matrix(1,0,0,1,445.232,1596.68)">
                    <path d="M772.066,397.534L689.473,446.286" style="fill:none;stroke:rgb(179,179,179);stroke-width:4.17px;stroke-miterlimit:1.5;"/>
                </g>
                <g transform="matrix(1,0,0,1,443.846,1595.88)">
                    <path d="M793.407,409.856L710.814,458.607" style="fill:none;stroke:rgb(179,179,179);stroke-width:4.17px;stroke-miterlimit:1.5;"/>
                </g>
                <g transform="matrix(1,0,0,1,487.452,1621.06)">
                    <path d="M772.066,397.534L689.473,446.286" style="fill:none;stroke:rgb(179,179,179);stroke-width:4.17px;stroke-miterlimit:1.5;"/>
                </g>
                <g transform="matrix(1,0,0,1,487.452,1621.06)">
                    <path d="M793.407,409.856L710.814,458.607" style="fill:none;stroke:rgb(179,179,179);stroke-width:4.17px;stroke-miterlimit:1.5;"/>
                </g>
                <g transform="matrix(1,0,0,1,424.824,1704.9)">
                    <path d="M772.066,397.534L689.473,446.286" style="fill:none;stroke:rgb(179,179,179);stroke-width:4.17px;stroke-miterlimit:1.5;"/>
                </g>
                <g transform="matrix(1,0,0,1,424.824,1704.9)">
                    <path d="M793.407,409.856L710.814,458.607" style="fill:none;stroke:rgb(179,179,179);stroke-width:4.17px;stroke-miterlimit:1.5;"/>
                </g>
                <g transform="matrix(1,0,0,1,467.507,1729.54)">
                    <path d="M772.066,397.534L689.473,446.286" style="fill:none;stroke:rgb(179,179,179);stroke-width:4.17px;stroke-miterlimit:1.5;"/>
                </g>
                <g transform="matrix(1,0,0,1,342.232,1657.22)">
                    <path d="M772.066,397.534L689.473,446.286" style="fill:none;stroke:rgb(179,179,179);stroke-width:4.17px;stroke-miterlimit:1.5;"/>
                </g>
                <g transform="matrix(1,0,0,1,342.232,1657.22)">
                    <path d="M793.407,409.856L710.814,458.607" style="fill:none;stroke:rgb(179,179,179);stroke-width:4.17px;stroke-miterlimit:1.5;"/>
                </g>
                <g transform="matrix(1,0,0,1,384.914,1681.86)">
                    <path d="M772.066,397.534L689.473,446.286" style="fill:none;stroke:rgb(179,179,179);stroke-width:4.17px;stroke-miterlimit:1.5;"/>
                </g>
                <g transform="matrix(1,0,0,1,384.452,1681.59)">
                    <path d="M793.407,409.856L710.814,458.607" style="fill:none;stroke:rgb(179,179,179);stroke-width:4.17px;stroke-miterlimit:1.5;"/>
                </g>
                <g transform="matrix(1,0,0,1,342.232,1657.22)">
                    <path d="M772.066,397.534L689.473,446.286" style="fill:none;stroke:rgb(179,179,179);stroke-width:4.17px;stroke-miterlimit:1.5;"/>
                </g>
                <g transform="matrix(1,0,0,1,342.232,1657.22)">
                    <path d="M793.407,409.856L710.814,458.607" style="fill:none;stroke:rgb(179,179,179);stroke-width:4.17px;stroke-miterlimit:1.5;"/>
                </g>
                <g transform="matrix(1,0,0,1,384.914,1681.86)">
                    <path d="M772.066,397.534L689.473,446.286" style="fill:none;stroke:rgb(179,179,179);stroke-width:4.17px;stroke-miterlimit:1.5;"/>
                </g>
                <g transform="matrix(1,0,0,1,384.452,1681.59)">
                    <path d="M793.407,409.856L710.814,458.607" style="fill:none;stroke:rgb(179,179,179);stroke-width:4.17px;stroke-miterlimit:1.5;"/>
                </g>
                <g transform="matrix(1,0,0,1,615.96,1695.25)">
                    <path d="M772.066,397.534L689.473,446.286" style="fill:none;stroke:rgb(179,179,179);stroke-width:4.17px;stroke-miterlimit:1.5;"/>
                </g>
                <g transform="matrix(1,0,0,1,615.498,1694.99)">
                    <path d="M793.407,409.856L710.814,458.607" style="fill:none;stroke:rgb(179,179,179);stroke-width:4.17px;stroke-miterlimit:1.5;"/>
                </g>
                <g transform="matrix(1,0,0,1,658.18,1719.63)">
                    <path d="M772.066,397.534L689.473,446.286" style="fill:none;stroke:rgb(179,179,179);stroke-width:4.17px;stroke-miterlimit:1.5;"/>
                </g>
                <g transform="matrix(1,0,0,1,658.18,1719.63)">
                    <path d="M793.407,409.856L710.814,458.607" style="fill:none;stroke:rgb(179,179,179);stroke-width:4.17px;stroke-miterlimit:1.5;"/>
                </g>
                <g transform="matrix(1,0,0,1,679.059,1731.68)">
                    <path d="M793.407,409.856L710.814,458.607" style="fill:none;stroke:rgb(179,179,179);stroke-width:4.17px;stroke-miterlimit:1.5;"/>
                </g>
            </g>
            <g transform="matrix(0.625,0.216506,0.216506,0.875,631.594,1130.12)">
                <path d="M480.22,1000.53L396.704,1048.75" style="fill:none;stroke:rgb(83,101,253);stroke-width:8.55px;stroke-miterlimit:1.5;"/>
            </g>
            <g transform="matrix(0.625,0.216506,0.216506,0.875,75.6378,1194.88)">
                <path d="M480.22,1000.53L396.704,1048.75" style="fill:none;stroke:rgb(83,101,253);stroke-width:8.55px;stroke-miterlimit:1.5;"/>
            </g>
            <g transform="matrix(0.625,0.216506,0.216506,0.875,73.9996,1073.39)">
                <path d="M480.22,1000.53L396.704,1048.75" style="fill:none;stroke:rgb(83,101,253);stroke-width:8.55px;stroke-miterlimit:1.5;"/>
            </g>
            <path d="M793.407,2169.82L835.165,2193.93L793.407,2218.04L751.649,2193.93L793.407,2169.82Z" style="fill:rgb(83,101,253);"/>
            <g transform="matrix(1,0,0,1,167.033,24.1092)">
                <path d="M793.407,2169.82L835.165,2193.93L793.407,2218.04L751.649,2193.93L793.407,2169.82Z" style="fill:rgb(83,101,253);"/>
            </g>
            <g transform="matrix(1,0,0,1,104.396,60.2729)">
                <path d="M793.407,2169.82L835.165,2193.93L793.407,2218.04L751.649,2193.93L793.407,2169.82Z" style="fill:rgb(179,179,179);"/>
            </g>
            <g transform="matrix(1,0,0,1,-83.5165,216.982)">
                <path d="M793.407,2169.82L835.165,2193.93L793.407,2218.04L751.649,2193.93L793.407,2169.82Z" style="fill:rgb(179,179,179);"/>
            </g>
            <g transform="matrix(1,0,0,1,313.187,229.037)">
                <path d="M793.407,2169.82L835.165,2193.93L793.407,2218.04L751.649,2193.93L793.407,2169.82Z" style="fill:rgb(179,179,179);"/>
            </g>
            <g transform="matrix(1,0,0,1,125.275,337.528)">
                <path d="M793.407,2169.82L835.165,2193.93L793.407,2218.04L751.649,2193.93L793.407,2169.82Z" style="fill:rgb(179,179,179);"/>
            </g>
            <g transform="matrix(1,0,0,1,208.791,168.764)">
                <path d="M793.407,2169.82L835.165,2193.93L793.407,2218.04L751.649,2193.93L793.407,2169.82Z" style="fill:rgb(83,101,253);"/>
            </g>
            <g transform="matrix(1,0,0,1,41.7583,144.655)">
                <path d="M793.407,2169.82L835.165,2193.93L793.407,2218.04L751.649,2193.93L793.407,2169.82Z" style="fill:rgb(83,101,253);"/>
            </g>
            <g transform="matrix(1.0645,0.0372409,0.0372409,1.0215,-118.287,-68.293)">
                <path d="M571.517,2186.37L814.286,2326.53" style="fill:none;stroke:rgb(83,101,253);stroke-width:3.86px;"/>
            </g>
            <g transform="matrix(1.07727,0.0446138,0.0446138,1.02576,-136.158,-78.6111)">
                <path d="M569.879,2064.88L772.528,2181.88" style="fill:none;stroke:rgb(83,101,253);stroke-width:3.8px;"/>
            </g>
            <g transform="matrix(1.06446,-0.0372174,-0.0372174,1.02149,0.655572,-0.378494)">
                <path d="M1023.08,2350.64L1266,2210.39" style="fill:none;stroke:rgb(83,101,253);stroke-width:4.14px;"/>
            </g>
            <g transform="matrix(1.125,-0.0721688,-0.0721688,1.04167,15.6594,-9.04093)">
                <path d="M981.319,2205.99L1106.59,2133.66" style="fill:none;stroke:rgb(83,101,253);stroke-width:4.12px;"/>
            </g>
        </g>
    </g>
</svg>
